<svg height="512pt" viewBox="-61 0 512 512" width="512pt" xmlns="http://www.w3.org/2000/svg"><path d="m323.441406 390.414062v77.679688h-254.617187v-77.679688c0-70.308593 57-127.308593 127.308593-127.308593 35.160157 0 66.980469 14.25 90.019532 37.289062 23.039062 23.039063 37.289062 54.871094 37.289062 90.019531zm0 0" fill="#38aaff"/><path d="m68.824219 416.84375h254.617187v51.25h-254.617187zm0 0" fill="#a0ecff"/><path d="m267.515625 31.234375c0 13.105469-10.628906 23.730469-23.734375 23.730469-13.109375 0-23.734375-10.625-23.734375-23.730469 0-13.109375 10.625-23.734375 23.734375-23.734375 13.105469 0 23.734375 10.625 23.734375 23.734375zm0 0" fill="#00fbaa"/><path d="m280.039062 133.773438v-18.632813c0-46.339844-37.566406-83.90625-83.90625-83.90625-46.339843 0-83.90625 37.566406-83.90625 83.90625v18.632813zm0 0" fill="#00df97"/><path d="m280.039062 115.136719v18.636719h-25.929687v-14.375c0-42.84375-30.207031-78.636719-70.484375-87.238282 4.078125-.617187 8.257812-.929687 12.507812-.929687 46.339844 0 83.90625 37.566406 83.90625 83.90625zm0 0" fill="#00b579"/><path d="m121.625 128.238281v70.71875c0 41.148438 33.359375 74.507813 74.507812 74.507813 41.148438 0 74.507813-33.359375 74.507813-74.507813v-70.71875zm0 0" fill="#fbdbb7"/><path d="m270.640625 128.238281v70.714844c0 20.570313-8.339844 39.207031-21.828125 52.6875-13.480469 13.476563-32.105469 21.816406-52.679688 21.816406-4.003906 0-7.933593-.3125-11.769531-.929687 15.859375-2.511719 30.046875-10.039063 40.90625-20.886719 13.476563-13.480469 21.816407-32.117187 21.816407-52.6875v-70.714844zm0 0" fill="#f4bc8e"/><path d="m277.257812 155.453125h-162.246093c-8.699219 0-15.746094-7.050781-15.746094-15.746094v-11.867187c0-8.699219 7.046875-15.746094 15.746094-15.746094h162.246093c8.695313 0 15.746094 7.046875 15.746094 15.746094v11.867187c0 8.695313-7.050781 15.746094-15.746094 15.746094zm0 0" fill="#00fbaa"/><path d="m225.191406 284.734375h59.042969v190.640625h-59.042969zm0 0" fill="#00df97"/><path d="m225.191406 395.117188h59.042969v43.453124h-59.042969zm0 0" fill="#f0f5f7"/><path d="m278.671875 303.476562h-165.074219c-15.558594 0-28.171875-12.613281-28.171875-28.171874 0-15.558594 12.613281-28.171876 28.171875-28.171876h165.074219c15.554687 0 28.167969 12.613282 28.167969 28.171876 0 15.558593-12.613282 28.171874-28.167969 28.171874zm0 0" fill="#00df97"/><path d="m306.84375 275.304688c0 7.78125-3.152344 14.820312-8.25 19.917968-5.101562 5.101563-12.140625 8.25-19.921875 8.25h-165.078125c-15.550781 0-28.171875-12.609375-28.171875-28.167968 0-3.769532.742187-7.359376 2.089844-10.652344 4.203125 10.273437 14.300781 17.523437 26.082031 17.523437h165.078125c7.78125 0 14.820313-3.152343 19.921875-8.25 2.628906-2.632812 4.738281-5.773437 6.160156-9.273437 1.347656 3.292968 2.089844 6.882812 2.089844 10.652344zm0 0" fill="#00b579"/><path d="m161.164062 171.480469h-.097656c-4.140625 0-7.453125 3.355469-7.453125 7.5 0 4.140625 3.40625 7.5 7.550781 7.5 4.140626 0 7.5-3.359375 7.5-7.5 0-4.144531-3.359374-7.5-7.5-7.5zm0 0"/><path d="m231.199219 171.480469h-.097657c-4.140624 0-7.449218 3.355469-7.449218 7.5 0 4.140625 3.40625 7.5 7.546875 7.5s7.5-3.359375 7.5-7.5c0-4.144531-3.359375-7.5-7.5-7.5zm0 0"/><path d="m203.941406 218.527344h-8.113281v-39.550782c0-4.140624-3.359375-7.5-7.5-7.5-4.144531 0-7.5 3.359376-7.5 7.5v47.050782c0 4.144531 3.355469 7.5 7.5 7.5h15.613281c4.140625 0 7.5-3.355469 7.5-7.5 0-4.140625-3.359375-7.5-7.5-7.5zm0 0"/><path d="m314.339844 275.304688c0-19.667969-16-35.671876-35.667969-35.671876h-11.320313c7.078126-12.316406 10.789063-26.171874 10.789063-40.679687v-36.023437c12.410156-.464844 22.363281-10.699219 22.363281-23.222657v-11.867187c0-9.28125-5.46875-17.304688-13.351562-21.027344-1.804688-20.054688-10.011719-38.140625-22.542969-52.285156 6.554687-5.828125 10.40625-14.199219 10.40625-23.292969 0-17.222656-14.011719-31.234375-31.234375-31.234375-15.199219 0-27.890625 10.917969-30.664062 25.320312-5.507813-1.03125-11.179688-1.585937-16.980469-1.585937-10.554688 0-20.921875 1.796875-30.816407 5.339844-3.898437 1.398437-5.929687 5.691406-4.535156 9.589843 1.398438 3.898438 5.6875 5.929688 9.589844 4.53125 8.269531-2.960937 16.9375-4.460937 25.761719-4.460937 38.53125 0 70.535156 28.417969 75.671875 65.859375h-151.347656c2.394531-17.410156 10.675781-33.367188 23.757812-45.492188 3.039062-2.816406 3.21875-7.5625.402344-10.601562-2.8125-3.035156-7.558594-3.21875-10.597656-.402344-16.714844 15.492188-26.878907 36.21875-28.910157 58.714844-7.878906 3.722656-13.347656 11.75-13.347656 21.027344v11.867187c0 12.523438 9.953125 22.757813 22.363281 23.226563v36.023437c0 14.300781 3.789063 28.355469 10.816406 40.675781h-11.347656c-19.667968 0-35.667968 16.003907-35.667968 35.671876 0 11.816406 5.777343 22.304687 14.652343 28.800781-1.730469 2.074219-3.398437 4.195312-4.992187 6.355469-2.460938 3.332031-1.75 8.027343 1.582031 10.488281 1.339844.988281 2.898437 1.464843 4.445313 1.464843 2.300781 0 4.570312-1.054687 6.042968-3.050781 2.292969-3.105469 4.765625-6.121093 7.355469-9.007812 2.136719.402343 4.332031.621093 6.582031.621093h104.097656v24.738282c0 4.140625 3.359376 7.5 7.5 7.5 4.140626 0 7.5-3.359375 7.5-7.5v-24.738282h44.042969v76.644532h-44.042969v-19.246094c0-4.144531-3.359374-7.5-7.5-7.5-4.140624 0-7.5 3.355469-7.5 7.5v40.96875h-82.164062v-43.746094c0-4.144531-3.359375-7.5-7.5-7.5-4.144531 0-7.5 3.355469-7.5 7.5v43.746094h-44.210938v-18.929688c0-14.804687 2.671876-29.261718 7.945313-42.976562 1.488281-3.867188-.441406-8.207031-4.308594-9.691406-3.863281-1.488282-8.207031.441406-9.691406 4.308594-5.9375 15.4375-8.945313 31.710937-8.945313 48.359374v77.679688c0 4.140625 3.359376 7.5 7.5 7.5 4.140626 0 7.5-3.359375 7.5-7.5v-43.75h44.210938v43.75c0 4.140625 3.355469 7.5 7.5 7.5 4.140625 0 7.5-3.359375 7.5-7.5v-43.75h82.164062v80.15625c0 4.144531 3.355469 7.5 7.5 7.5 4.140626 0 7.5-3.355469 7.5-7.5v-21.621094h4.679688v21.621094c0 4.144531 3.359375 7.5 7.5 7.5s7.5-3.355469 7.5-7.5v-21.621094h4.683594v21.621094c0 4.144531 3.355468 7.5 7.5 7.5 4.140625 0 7.5-3.355469 7.5-7.5v-21.621094h4.679687v21.621094c0 4.144531 3.359375 7.5 7.5 7.5s7.5-3.355469 7.5-7.5v-80.15625h24.207031v43.75c0 4.140625 3.359376 7.5 7.5 7.5 4.144532 0 7.5-3.359375 7.5-7.5v-77.679688c0-31.75-11.050781-62.109374-31.257812-86.3125 8.875-6.496093 14.652344-16.984374 14.652344-28.796874zm-86.417969-127.351563c-4.546875 0-8.246094-3.699219-8.246094-8.246094v-11.867187c0-4.546875 3.695313-8.246094 8.246094-8.246094h17.863281c-.976562 2.5625-1.515625 5.34375-1.515625 8.246094v11.867187c0 2.902344.539063 5.683594 1.515625 8.246094zm-39.59375 0c-4.546875 0-8.25-3.699219-8.25-8.246094v-11.867187c0-4.546875 3.699219-8.246094 8.25-8.246094h17.863281c-.976562 2.5625-1.515625 5.34375-1.515625 8.246094v11.867187c0 2.902344.539063 5.683594 1.515625 8.246094zm-39.59375 0c-4.546875 0-8.25-3.699219-8.25-8.246094v-11.867187c0-4.546875 3.699219-8.246094 8.25-8.246094h17.863281c-.976562 2.5625-1.515625 5.34375-1.515625 8.246094v11.867187c0 2.902344.539063 5.683594 1.515625 8.246094zm136.769531-8.246094c0 4.546875-3.699218 8.246094-8.25 8.246094h-9.742187c-4.546875 0-8.246094-3.699219-8.246094-8.246094v-11.867187c0-4.546875 3.699219-8.246094 8.246094-8.246094h9.742187c4.546875 0 8.25 3.699219 8.25 8.246094zm-41.722656-124.707031c8.949219 0 16.234375 7.28125 16.234375 16.234375 0 5.132813-2.363281 9.820313-6.320313 12.855469-7.734374-6.265625-16.507812-11.285156-26.023437-14.769532.949219-8.050781 7.804687-14.320312 16.109375-14.320312zm-137.015625 124.707031v-11.867187c0-4.546875 3.699219-8.246094 8.246094-8.246094h11.992187c-.976562 2.5625-1.515625 5.34375-1.515625 8.246094v11.867187c0 2.902344.539063 5.683594 1.515625 8.246094h-11.992187c-4.546875 0-8.246094-3.699219-8.246094-8.246094zm22.359375 59.246094v-36h134.015625v36c0 14.882813-4.765625 28.921875-13.773437 40.679687h-106.46875c-9.007813-11.75-13.773438-25.769531-13.773438-40.679687zm-36.199219 76.351563c0-11.398438 9.273438-20.671876 20.671875-20.671876h165.074219c11.394531 0 20.667969 9.273438 20.667969 20.671876 0 11.398437-9.273438 20.671874-20.667969 20.671874h-165.074219c-11.398437 0-20.671875-9.273437-20.671875-20.671874zm183.8125 127.3125v28.453124h-44.042969v-28.453124zm-44.042969 43.453124h44.042969v21.808594h-44.042969zm83.25-36.726562h-24.207031v-91.148438c15.683594 20.71875 24.207031 45.929688 24.207031 72.21875zm0 0"/><path d="m333.238281 292.359375-.101562-.003906c-.027344 0-.050781 0-.074219 0-4.109375 0-7.457031 3.3125-7.496094 7.429687-.039062 4.144532 3.285156 7.53125 7.425782 7.570313l.105468.003906h.074219c4.105469 0 7.457031-3.3125 7.496094-7.429687.039062-4.144532-3.285157-7.53125-7.429688-7.570313zm0 0"/><path d="m363.03125 92.542969c-4.144531 0-7.5 3.359375-7.5 7.5 0 4.144531 3.355469 7.5 7.5 7.5h.101562c4.144532 0 7.5-3.355469 7.5-7.5 0-4.140625-3.355468-7.5-7.5-7.5zm0 0"/><path d="m48.164062 292.359375-.105468-.003906c-4.140625-.003907-7.53125 3.289062-7.570313 7.429687-.039062 4.144532 3.289063 7.53125 7.429688 7.570313l.105469.003906h.070312c4.109375 0 7.460938-3.3125 7.5-7.429687.039062-4.144532-3.289062-7.53125-7.429688-7.570313zm0 0"/><path d="m33.269531 317.644531h-.105469c-4.140624 0-7.5 3.355469-7.5 7.5 0 4.140625 3.359376 7.5 7.5 7.5h.105469c4.140625 0 7.5-3.359375 7.5-7.5 0-4.144531-3.359375-7.5-7.5-7.5zm0 0"/><path d="m70.773438 79.496094h.101562c4.144531 0 7.5-3.355469 7.5-7.5 0-4.144532-3.355469-7.5-7.5-7.5h-.101562c-4.144532 0-7.5 3.355468-7.5 7.5 0 4.144531 3.355468 7.5 7.5 7.5zm0 0"/><path d="m381.820312 208.023438h-7.660156c2.265625-2.9375 2.054688-7.167969-.640625-9.863282-2.695312-2.695312-6.921875-2.902344-9.863281-.640625v-7.660156c0-4.144531-3.359375-7.5-7.5-7.5-4.144531 0-7.5 3.355469-7.5 7.5v7.660156c-2.941406-2.261719-7.171875-2.054687-9.867188.640625-2.691406 2.695313-2.902343 6.925782-.640624 9.863282h-7.660157c-4.140625 0-7.5 3.359374-7.5 7.5 0 4.144531 3.359375 7.5 7.5 7.5h7.660157c-2.261719 2.941406-2.050782 7.171874.640624 9.867187 1.464844 1.464844 3.386719 2.195313 5.304688 2.195313 1.613281 0 3.21875-.523438 4.5625-1.554688v7.660156c0 4.144532 3.359375 7.5 7.5 7.5s7.5-3.355468 7.5-7.5v-7.660156c1.339844 1.03125 2.949219 1.554688 4.5625 1.554688 1.917969 0 3.839844-.730469 5.300781-2.195313 2.695313-2.695313 2.90625-6.925781.644531-9.867187h7.660157c4.140625 0 7.5-3.355469 7.5-7.5 0-4.140626-3.359375-7.5-7.503907-7.5zm0 0"/><path d="m66.332031 148.042969c0-4.140625-3.359375-7.5-7.5-7.5h-7.660156c2.261719-2.941407 2.054687-7.171875-.640625-9.863281-2.695312-2.695313-6.925781-2.90625-9.867188-.640626v-7.660156c0-4.144531-3.355468-7.5-7.5-7.5-4.140624 0-7.5 3.355469-7.5 7.5v7.660156c-2.9375-2.265624-7.167968-2.054687-9.863281.640626-2.695312 2.691406-2.902343 6.921874-.640625 9.863281h-7.660156c-4.140625 0-7.5 3.359375-7.5 7.5 0 4.144531 3.359375 7.5 7.5 7.5h7.660156c-2.261718 2.941406-2.054687 7.171875.640625 9.867187 1.464844 1.464844 3.382813 2.195313 5.300781 2.195313 1.613282 0 3.222657-.523438 4.5625-1.554688v7.660157c0 4.144531 3.359376 7.5 7.5 7.5 4.144532 0 7.5-3.355469 7.5-7.5v-7.660157c1.34375 1.03125 2.949219 1.554688 4.5625 1.554688 1.917969 0 3.839844-.730469 5.304688-2.195313 2.695312-2.695312 2.902344-6.925781.640625-9.867187h7.660156c4.140625 0 7.5-3.355469 7.5-7.5zm0 0"/><path d="m307.503906 71.542969h7.660156c-2.265624 2.941406-2.054687 7.171875.640626 9.867187 1.460937 1.464844 3.382812 2.195313 5.300781 2.195313 1.613281 0 3.21875-.523438 4.5625-1.554688v7.660157c0 4.144531 3.359375 7.5 7.5 7.5s7.5-3.355469 7.5-7.5v-7.660157c1.34375 1.03125 2.949219 1.554688 4.5625 1.554688 1.917969 0 3.839843-.730469 5.300781-2.195313 2.695312-2.695312 2.90625-6.925781.640625-9.867187h7.664063c4.140624 0 7.5-3.355469 7.5-7.5 0-4.140625-3.359376-7.5-7.5-7.5h-7.664063c2.265625-2.941407 2.054687-7.171875-.640625-9.863281-2.691406-2.695313-6.921875-2.90625-9.863281-.640626v-7.660156c0-4.144531-3.359375-7.5-7.5-7.5s-7.5 3.355469-7.5 7.5v7.660156c-2.941407-2.265624-7.171875-2.054687-9.863281.640626-2.695313 2.691406-2.90625 6.921874-.640626 9.863281h-7.660156c-4.144531 0-7.5 3.359375-7.5 7.5 0 4.144531 3.355469 7.5 7.5 7.5zm0 0"/></svg>